<svg width="824" height="824" viewBox="0 0 824 824" fill="none" xmlns="http://www.w3.org/2000/svg">
<rect width="824" height="824" rx="185" fill="#171717"/>
<path d="M637.603 537.622C634.457 537.622 632.884 536.049 632.884 532.903V290.719C632.884 287.573 634.457 286 637.603 286H697.252C700.398 286 701.971 287.573 701.971 290.719V532.903C701.971 536.049 700.398 537.622 697.252 537.622H637.603Z" fill="#A78BFA"/>
<path d="M511.246 537.622C508.352 537.622 505.835 536.553 503.695 534.413L465.943 496.66C463.929 494.647 462.922 492.13 462.922 489.11V378.494C462.922 375.474 463.929 372.957 465.943 370.944L503.695 333.191C505.835 331.052 508.352 329.982 511.246 329.982H530.877C533.772 329.982 536.289 331.052 538.428 333.191L547.866 342.629V290.719C547.866 287.573 549.439 286 552.585 286H612.235C615.381 286 616.954 287.573 616.954 290.719V532.903C616.954 536.049 615.381 537.622 612.235 537.622H563.533C561.898 537.622 560.702 537.308 559.947 536.678C559.192 536.049 558.311 535.294 557.304 534.413L547.866 524.975L538.428 534.413C536.289 536.553 533.772 537.622 530.877 537.622H511.246ZM539.561 474.764H540.316C542.832 474.764 544.72 474.072 545.978 472.687C547.237 471.303 547.866 469.353 547.866 466.836V392.84H539.938C537.421 392.84 535.471 393.532 534.086 394.917C532.702 396.301 532.01 398.252 532.01 400.768V466.836C532.01 469.353 532.639 471.303 533.898 472.687C535.282 474.072 537.169 474.764 539.561 474.764Z" fill="#A78BFA"/>
<path d="M341.285 537.622C338.391 537.622 335.874 536.553 333.734 534.413L295.982 496.66C293.968 494.647 292.961 492.13 292.961 489.11V378.494C292.961 375.474 293.968 372.957 295.982 370.944L333.734 333.191C335.874 331.052 338.391 329.982 341.285 329.982H398.669C401.564 329.982 404.08 331.052 406.22 333.191L443.973 370.944C445.986 372.957 446.993 375.474 446.993 378.494V489.11C446.993 492.13 445.986 494.647 443.973 496.66L406.22 534.413C404.08 536.553 401.564 537.622 398.669 537.622H341.285ZM369.6 474.764H369.977C372.494 474.764 374.444 474.072 375.829 472.687C377.213 471.303 377.905 469.353 377.905 466.836V400.768C377.905 398.252 377.213 396.301 375.829 394.917C374.444 393.532 372.494 392.84 369.977 392.84H369.411C366.894 392.84 365.006 393.532 363.748 394.917C362.615 396.301 362.049 398.252 362.049 400.768V466.836C362.049 469.353 362.678 471.303 363.937 472.687C365.321 474.072 367.209 474.764 369.6 474.764Z" fill="#A78BFA"/>
<path d="M127.719 537.622C124.573 537.622 123 536.049 123 532.903V334.701C123 331.555 124.573 329.982 127.719 329.982H228.708C231.602 329.982 234.119 331.052 236.258 333.191L274.011 370.944C276.025 372.957 277.031 375.474 277.031 378.494V532.903C277.031 536.049 275.458 537.622 272.312 537.622H212.663C209.517 537.622 207.944 536.049 207.944 532.903V406.998C207.944 401.838 205.301 399.258 200.016 399.258H192.088V532.903C192.088 536.049 190.515 537.622 187.368 537.622H127.719Z" fill="#A78BFA"/>
</svg>
